<svg id="bce1a4ff-8ce6-42b2-9a39-187f8a690592" data-name="Layer 1" xmlns="http://www.w3.org/2000/svg" viewBox="0 0 168.73 130.27"><defs><style>.\39 41e045e-466f-424b-a8f5-1871cf080838{fill:#f9a46a;}.\37 c3259d2-ac2e-4137-83dd-73781984b400{fill:#f05b2b;}.\32 22f10d8-8936-40ad-8b8d-11166431db6e{fill:#b03424;}.deac2842-d9bb-4050-b77f-a06fe079fe9e{fill:#f58126;}.ae3c03d3-5cb9-4560-ab6c-dada51add56f{fill:#f9a364;}.\36 486d46e-5f58-413c-aeb7-473da81c5004,.\38 c853ac2-b571-43d2-9bce-178df56a933a{fill:none;stroke:#b23625;stroke-width:6px;}.\38 c853ac2-b571-43d2-9bce-178df56a933a{stroke-linejoin:round;}.\36 486d46e-5f58-413c-aeb7-473da81c5004{stroke-miterlimit:10;}</style></defs><title>cash_register</title><rect class="941e045e-466f-424b-a8f5-1871cf080838" x="3" y="100.56" width="162.61" height="26.71"/><path class="7c3259d2-ac2e-4137-83dd-73781984b400" d="M17.57,126c0-16.91,19.29-55.19,29.38-55.19V49.11H100V126H17.57Z" transform="translate(-14.57 -33.4)"/><path class="222f10d8-8936-40ad-8b8d-11166431db6e" d="M180.31,126c0-16.91-19.29-55.19-29.38-55.19V49.11H97.88V126h82.43Z" transform="translate(-14.57 -33.4)"/><rect class="deac2842-d9bb-4050-b77f-a06fe079fe9e" x="83.31" y="100.56" width="82.31" height="26.71"/><circle class="222f10d8-8936-40ad-8b8d-11166431db6e" cx="83.15" cy="113.51" r="7.16"/><polygon class="ae3c03d3-5cb9-4560-ab6c-dada51add56f" points="120.85 37.1 120.85 5.65 117.74 9.46 114.09 4.98 110.68 9.15 106.97 4.6 102.99 9.49 99.76 5.53 99.76 37.1 120.85 37.1"/><polyline class="222f10d8-8936-40ad-8b8d-11166431db6e" points="41.87 23.27 41.87 37.1 75.74 37.1 75.74 23.27"/><rect class="ae3c03d3-5cb9-4560-ab6c-dada51add56f" x="40.18" y="46.85" width="13.3" height="9.01"/><rect class="ae3c03d3-5cb9-4560-ab6c-dada51add56f" x="60.74" y="46.85" width="13.3" height="9.01"/><rect class="ae3c03d3-5cb9-4560-ab6c-dada51add56f" x="40.18" y="62.1" width="13.3" height="9.01"/><rect class="ae3c03d3-5cb9-4560-ab6c-dada51add56f" x="60.74" y="62.1" width="13.3" height="9.01"/><path class="8c853ac2-b571-43d2-9bce-178df56a933a" d="M17.57,126c0-13,18.43-55.46,29.38-55.19V49.11h64.43V37.38l4.15,4.15,5.13-5.12,4.77,4.77,4.38-4.37,4.7,4.7,4-4V49.11h12.43V70.77c8.82,0,29.38,38.25,29.38,55.19" transform="translate(-14.57 -33.4)"/><polyline class="6486d46e-5f58-413c-aeb7-473da81c5004" points="3 100.56 3 127.27 165.61 127.27 165.61 100.56"/></svg>