<svg id="f02ee76f-ec97-4ff1-a8c0-9027854e22fc" data-name="Layer 1" xmlns="http://www.w3.org/2000/svg" xmlns:xlink="http://www.w3.org/1999/xlink" viewBox="0 0 179.07 97.85"><defs><style>.\30 490de32-a3c5-4e7d-91e9-b41d891f76f1{fill:url(#957fa784-a874-4f4a-9337-041c2b4ce0a5);}.b7573e77-d70d-4360-9775-47f39a64c2fe{fill:#ad1100;}.e229b5d9-af7c-458d-b581-18b4c12eaf62{fill:#fd9344;}.\36 be9dee9-5e4e-4e1e-ae47-738ccbd347d3{fill:#fd340b;}.\34 84963ab-c0e9-4bb1-9958-14d07b375dba{fill:#ff650a;stroke:#ad1100;stroke-miterlimit:10;stroke-width:3px;}</style><linearGradient id="957fa784-a874-4f4a-9337-041c2b4ce0a5" x1="113.8" y1="105.43" x2="170.67" y2="105.43" gradientUnits="userSpaceOnUse"><stop offset="0.4" stop-color="#ff650a"/><stop offset="0.4" stop-color="#fd340b"/></linearGradient></defs><title>creator</title><path class="0490de32-a3c5-4e7d-91e9-b41d891f76f1" d="M142.23,148.67h0c-15.64,0-28.43-7.32-28.43-23v-40c0-15.64,12.79-23.54,28.43-23.54h0c15.64,0,28.43,7.91,28.43,23.54v40C170.67,141.35,157.87,148.67,142.23,148.67Z" transform="translate(-11.15 -53.49)"/><path class="b7573e77-d70d-4360-9775-47f39a64c2fe" d="M142.23,151.33c-19.18,0-31.1-9.82-31.1-25.62v-40c0-15.92,12.21-26.21,31.1-26.21s31.1,10.29,31.1,26.21v40C173.33,141.52,161.41,151.33,142.23,151.33Zm0-86.48c-19,0-25.77,10.79-25.77,20.88v40c0,4.76,1.86,20.29,25.77,20.29S168,130.47,168,125.72v-40C168,75.64,161.23,64.85,142.23,64.85Z" transform="translate(-11.15 -53.49)"/><path class="b7573e77-d70d-4360-9775-47f39a64c2fe" d="M127.7,106.29a5.79,5.79,0,0,1-.71,1.19l2.29,0.6a8.43,8.43,0,0,1,.62-4.71H127a12.85,12.85,0,0,1,.14,6.34h3.23a15,15,0,0,1-.55-6.29l-3.27.44,0.17,0.82c0.44,2.1,3.63,1.21,3.21-.88l-0.17-.82c-0.41-2-3.06-1.26-3.27.44a16.31,16.31,0,0,0,.66,7.18c0.48,1.47,2.87,1.71,3.23,0a14.69,14.69,0,0,0-.42-8,1.54,1.54,0,0,0-2.94,0,10.3,10.3,0,0,0-.32,6.24c0.44,1.74,2.91,1,2.64-.73a6.06,6.06,0,0,1,.09-1.34,0.91,0.91,0,0,0-1.67-.45h0Z" transform="translate(-11.15 -53.49)"/><path class="b7573e77-d70d-4360-9775-47f39a64c2fe" d="M143.23,104.23a19.63,19.63,0,0,1-.82,4.48l2.86,0.37a15,15,0,0,1-.17-5.87h-3.33a9.07,9.07,0,0,1,.44,5.74l3.33-.43a7.33,7.33,0,0,1,.09-5.82h-3.52a10.9,10.9,0,0,1,.64,3.22,6.05,6.05,0,0,1-.3,2.76l1.5-.86h-0.14l1.19,0.49-0.09-.11,0.26,2,0-.11A1.62,1.62,0,0,0,143,107.9l-0.1.06a1.62,1.62,0,0,0-.81,1.42,1.9,1.9,0,0,0,1.83,1.93,2.22,2.22,0,0,0,2.09-1.89,13.32,13.32,0,0,0-.4-7.69,1.84,1.84,0,0,0-3.52,0,10.87,10.87,0,0,0,.28,8.63c0.64,1.45,3,1,3.33-.43a12.57,12.57,0,0,0-.8-8,1.74,1.74,0,0,0-3.15.41,15.76,15.76,0,0,0,.48,7.61,1.57,1.57,0,0,0,3.07-.42,11.87,11.87,0,0,0-.11-5.27c-0.3-.87-1.8-1.08-2,0h0Z" transform="translate(-11.15 -53.49)"/><path class="b7573e77-d70d-4360-9775-47f39a64c2fe" d="M132.11,114.74a25.49,25.49,0,0,0-.72,5.38c-0.09,1.3-.54,3.1.12,4.3,0.57,1,1.63,1.18,2.72,1.28,1.44,0.14,3.17.36,4.39-.53a1.19,1.19,0,0,0,0-2c-1.51-.68-3.64.28-5-0.58l0.69,0.89c-0.48-1.14,0-3.22,0-4.43a21.1,21.1,0,0,0-.29-4.28,1,1,0,0,0-1.9,0h0Z" transform="translate(-11.15 -53.49)"/><path class="b7573e77-d70d-4360-9775-47f39a64c2fe" d="M126.5,130c1.59,4.75,6.73,7.26,11.45,7.75,5.86,0.61,9.75-2.73,11.18-8.39a1.14,1.14,0,0,0-1.89-1.1c-1.15,1.23-1.8,2.65-2.84,3.95-1.85,2.31-3.89,2.78-6.8,2.35-4-.58-6.71-2.69-9.42-5.54a1,1,0,0,0-1.68,1h0Z" transform="translate(-11.15 -53.49)"/><path class="b7573e77-d70d-4360-9775-47f39a64c2fe" d="M138.38,73.74S149.64,90,163.85,87.36c0,0-.38,50.91,6.81,53.7,19.55,7.6,18.66-11.4,18.66-11.4s-5.18,7.94-9.48-.55c0,0,.59-40.57-5.33-55.23s-21.32-20.44-34.35-19.4c-14.38,1.14-26.36,4.59-32.28,21.32-7.13,20.14-1.63,53.86-1.63,53.86s-0.59,7.45-10.81,1.53c0,0,5.92,17.47,18.36,5.92V85.73S121.21,88.55,138.38,73.74Z" transform="translate(-11.15 -53.49)"/><path class="b7573e77-d70d-4360-9775-47f39a64c2fe" d="M178.85,143.75a23.86,23.86,0,0,1-8.5-1.86C163.22,139.12,162.91,99,163,88.4c-5.76.73-11.88-1.39-17.73-6.16a44.41,44.41,0,0,1-7-7.2C125,86.28,117.43,87,114.69,86.8v50.32a0.89,0.89,0,0,1-.28.65c-3.73,3.46-7.31,4.79-10.66,3.94-6.15-1.55-9-9.87-9.15-10.23a0.89,0.89,0,0,1,1.29-1.05c3.5,2,6.2,2.65,7.82,1.8a3.51,3.51,0,0,0,1.64-2.54,189.18,189.18,0,0,1-1.85-19.35c-0.45-10.07-.19-24.28,3.54-34.81,5.83-16.47,17.43-20.67,33-21.91,13.12-1,29.1,4.72,35.25,20,5.76,14.25,5.44,51.77,5.4,55.36,1.09,2.08,2.28,3.17,3.53,3.24,2.22,0.08,4.29-2.94,4.31-3a0.89,0.89,0,0,1,1.63.44c0,0.34.33,8.42-5,12.23A10.67,10.67,0,0,1,178.85,143.75Zm-15-57.28a0.89,0.89,0,0,1,.89.89c-0.14,19.44,1.42,51,6.24,52.87,5.8,2.25,10.24,2.31,13.21.18s3.8-5.78,4.1-8.25a5.91,5.91,0,0,1-4.13,1.75c-2-.11-3.7-1.59-5.12-4.4a0.9,0.9,0,0,1-.1-0.41c0-.4.52-40.56-5.27-54.89s-21-19.84-33.46-18.85c-15.36,1.22-26,5.12-31.51,20.73-7,19.69-1.64,53.08-1.59,53.42a0.88,0.88,0,0,1,0,.21,5.32,5.32,0,0,1-2.6,4.06c-1.8.94-4.24,0.72-7.28-.66,1.21,2.4,3.53,6,6.94,6.85,2.64,0.66,5.58-.43,8.72-3.26v-51a0.89,0.89,0,0,1,1.2-.83c0.06,0,7.3,2.29,23.69-11.84a0.89,0.89,0,0,1,1.31.17c0.1,0.15,9.52,13.53,21.6,13.53a16.11,16.11,0,0,0,3-.28Z" transform="translate(-11.15 -53.49)"/><rect class="b7573e77-d70d-4360-9775-47f39a64c2fe" x="17.28" y="68.46" width="48.67" height="78.67" rx="5" ry="5" transform="matrix(0.98, -0.19, 0.19, 0.98, -30.73, -43.71)"/><rect class="e229b5d9-af7c-458d-b581-18b4c12eaf62" x="20.98" y="72.96" width="40.89" height="67.74" rx="2.49" ry="2.49" transform="translate(-30.55 -43.76) rotate(-10.86)"/><polygon class="6be9dee9-5e4e-4e1e-ae47-738ccbd347d3" points="27.37 69.91 31.24 64.79 36.83 66.74 49.67 85.63 24.37 90.48 27.37 69.91"/><path class="b7573e77-d70d-4360-9775-47f39a64c2fe" d="M42.93,120.06L47,121.48,58.3,138.07l-21,4L40,124l3-3.94m-1.07-3.55-1.32,1.74-3,3.94-0.46.61-0.11.76-2.64,18.11-0.61,4.17,4.14-.8,21-4,4.48-.86-2.57-3.77L49.5,119.79,48.94,119,48,118.65l-4.09-1.43-2.06-.72h0Z" transform="translate(-11.15 -53.49)"/><rect class="484963ab-c0e9-4bb1-9958-14d07b375dba" x="31" y="97.55" width="20.55" height="26.69" rx="10.28" ry="10.28" transform="matrix(0.98, -0.19, 0.19, 0.98, -31.32, -43.72)"/><path class="b7573e77-d70d-4360-9775-47f39a64c2fe" d="M32.58,98.32c-1.3-.83-2.16-1.33-3.24-0.22a7.5,7.5,0,0,0-1.83,2.39c-0.8,2-.72,4.82,1.06,6a4.13,4.13,0,0,0,2.62.57c2.67-.18,5.35-2.19,5.59-5a2.82,2.82,0,0,0,3.3,1.18,3,3,0,0,0,1.73-3.14,11.41,11.41,0,0,0,4,1.71,3.81,3.81,0,0,0,3.81-1.48c0.8-1.24.42-3.31-.92-3.87,4-1,7-5.26,6.87-9.67-0.07-2.25-1-4.65-2.95-5.65s-4,.3-6,1.1c-3.88,1.56-5.2,6.55-3.48,10.66-1.78-2.24-3.69-1.57-6-.92s-4.35,3.84-4.59,6.34" transform="translate(-11.15 -53.49)"/><path class="b7573e77-d70d-4360-9775-47f39a64c2fe" d="M38.43,110.87a0.49,0.49,0,0,1,.08.14c0.05,0.11,0-.19,0,0.07l1.62-.66c-0.13-.06-0.07,0-0.06,0s0.08,0.22,0,.05,0,0.06,0,.05-0.16.28,0,0h-2a1.88,1.88,0,0,1,.23.4l1.75-.71-0.19-.11c0.09,0.06-.07-0.11,0,0l-0.07-.23c0,0.08,0,.23,0,0l-1.5.85c0.08,0,.16.05,0,0a0.14,0.14,0,1,0,0,0c0.06,0.06.1,0.12,0,0s0.15,0.29.1,0.17,0,0.11,0,.13,0-.15,0,0,0.07-.18,0,0,0.15-.24,0,0.07l2-.26c0.06,0.06-.29-0.24-0.17-0.21a0.12,0.12,0,0,1,0,.13l-0.33.56,0.08-.08-0.89.37h0.06a1.23,1.23,0,0,0,1.17-1.53v0a1.27,1.27,0,0,0-1.84-.75c-1.31.64-.79,2.61,0.12,3.35a1.28,1.28,0,0,0,2-.26A2.83,2.83,0,0,0,39,108.31a1.24,1.24,0,0,0-1.5.85,2.74,2.74,0,0,0,1.44,3.1,1.24,1.24,0,0,0,1.2,0,1.16,1.16,0,0,0,.59-1,3.6,3.6,0,0,0-.6-1.87,1.16,1.16,0,0,0-2,0,2.11,2.11,0,0,0,1.12,3.07,1.11,1.11,0,0,0,1.36-1.36,2.37,2.37,0,0,0-1.17-1.49,0.82,0.82,0,0,0-1,1.28h0Z" transform="translate(-11.15 -53.49)"/><path class="b7573e77-d70d-4360-9775-47f39a64c2fe" d="M44.64,109.32a0.5,0.5,0,0,1-.24-0.56q0,0.18,0,0a0.7,0.7,0,0,1,1.18,0,0.67,0.67,0,0,1-.14.78l-1.42.18c0.07,0,.08.08,0.08,0.25l2.07-.86a1.76,1.76,0,0,1-.54-1.18L43.81,109c-0.11-.08,0,0.07,0,0l1.85-1.06a0.33,0.33,0,1,0-.05,0c0.08,0.07,0-.18,0,0L44,109.07a0.49,0.49,0,0,1-.27-0.23q0.11,0.23,0,0c0-.46-0.05,0-0.07.21a1.22,1.22,0,0,0,.89,1.17,1.26,1.26,0,0,0,1.37-.56,2.05,2.05,0,0,0-1.28-2.93,1.25,1.25,0,0,0-1.57,1.19,2.51,2.51,0,0,0,1.29,2.17A1.24,1.24,0,0,0,46.24,109a2.65,2.65,0,0,0-1.2-2.14,1.23,1.23,0,0,0-1.83,1.05,4.26,4.26,0,0,0,1.26,2.89,1.23,1.23,0,0,0,2.07-.86,2.63,2.63,0,0,0-1.32-2.28,1.19,1.19,0,0,0-1.42.18,1.71,1.71,0,0,0-.19,2,1.59,1.59,0,0,0,2.07.63,1.52,1.52,0,0,0-.6-2.85,0.89,0.89,0,0,0-.45,1.65h0Z" transform="translate(-11.15 -53.49)"/><path class="b7573e77-d70d-4360-9775-47f39a64c2fe" d="M38.1,116.68c2.48,4.41,10.6,3.48,10.46-2.22a0.7,0.7,0,0,0-1.3-.35A6.86,6.86,0,0,1,44,117.06a5.21,5.21,0,0,1-4.86-1.2,0.68,0.68,0,0,0-1.07.82h0Z" transform="translate(-11.15 -53.49)"/></svg>