<svg id="4049cc10-5096-4aab-bcf8-abefa48b6919" data-name="Layer 1" xmlns="http://www.w3.org/2000/svg" viewBox="0 0 174.48 146.8"><defs><style>.\34 9cb9c40-5f7f-47c9-ba84-edfa3b411504{fill:#fff;}.\31 affd2dc-9ec2-4d82-94bc-d4e9c2303113{fill:#fd9344;}.\35 051c92c-66c9-4814-821a-df3533b34181{fill:#ad1100;}.\39 354a5fc-dc9a-4323-a2e9-4b7248345b33{fill:#ff650a;}.\31 5dfdef8-f310-45bf-b1a5-ba41d02856fc{fill:#fd340b;}</style></defs><title>handshake</title><path class="49cb9c40-5f7f-47c9-ba84-edfa3b411504" d="M13.22,67.6L48.8,39,87,47.84l66.08,70s-2.65,23.93-20.52,17.77c0,0-4.83,22-18.45,14.85,0,0-3.69,26.88-23.93,18.72Z" transform="translate(-13 -37.2)"/><path class="1affd2dc-9ec2-4d82-94bc-d4e9c2303113" d="M20,72.75L55.58,44.2,93.78,53l66.08,70c7.6,13.28-6.3,28.26-20.52,17.77,7.39,13.31-8.74,27.54-20,17.2C127.11,168.73,107.1,183,97,174.32Z" transform="translate(-13 -37.2)"/><path class="5051c92c-66c9-4814-821a-df3533b34181" d="M55.58,44.2L93.78,53l66.08,70c5.81,10.15-.95,21.3-10.8,21.3a16.4,16.4,0,0,1-9.72-3.53c5.61,10.11-2.35,20.75-11.42,20.75a12.5,12.5,0,0,1-8.55-3.55c6.06,8.44-4.92,19-14.83,19A11.39,11.39,0,0,1,97,174.32L20,72.75,55.58,44.2m0-7a7,7,0,0,0-4.38,1.54L15.62,67.29A7,7,0,0,0,14.42,77l77,101.57a7,7,0,0,0,1,1.08A18.34,18.34,0,0,0,104.54,184c8.64,0,17.73-5.48,21.61-13a18.72,18.72,0,0,0,1.06-2.47h0.72a20.45,20.45,0,0,0,17.4-10.29,20.68,20.68,0,0,0,2.57-7q0.59,0,1.17,0a19.66,19.66,0,0,0,17.13-10,21.63,21.63,0,0,0-.26-21.79,7,7,0,0,0-1-1.33l-66.08-70a7,7,0,0,0-3.52-2l-38.2-8.79a7,7,0,0,0-1.57-.18h0Z" transform="translate(-13 -37.2)"/><path class="9354a5fc-dc9a-4323-a2e9-4b7248345b33" d="M74.32,67.44l30.29-29.2S129.82,50.32,152,42.8l35.49,39.81L156.09,119,113.72,74.11,90.79,87.2C81.72,91.22,66.7,78.43,74.32,67.44Z" transform="translate(-13 -37.2)"/><path class="5051c92c-66c9-4814-821a-df3533b34181" d="M106.16,46.46c6.2,2.35,18,6,30.87,5.8a58.41,58.41,0,0,0,12.66-1.53l28.49,32-22.32,25.86-37-39.24A7,7,0,0,0,110.25,68L87.76,80.87a2.55,2.55,0,0,1-.66.09c-2.23,0-5.67-1.9-7.22-4.82a4.06,4.06,0,0,1-.12-4.23l26.4-25.45m-1.55-8.22L74.32,67.44c-6.67,9.64,4,20.64,12.89,20.52a9.15,9.15,0,0,0,3.59-.76l22.92-13.09L156.09,119l31.39-36.38L152,42.8a49,49,0,0,1-15.06,2.46c-17.15.25-32.32-7-32.32-7h0Z" transform="translate(-13 -37.2)"/><path class="9354a5fc-dc9a-4323-a2e9-4b7248345b33" d="M30.2,114.82l17.92-14.18c9.24-6.27,24,12.4,14.24,19.94S44.9,134,44.9,134Z" transform="translate(-13 -37.2)"/><path class="5051c92c-66c9-4814-821a-df3533b34181" d="M44.9,137.45a3.49,3.49,0,0,1-2.78-1.37L27.42,117a3.5,3.5,0,0,1,.6-4.88L45.95,97.9l0.21-.15c6.6-4.48,14.69-.41,19.27,5.92,5.19,7.18,4.8,15.27-.94,19.68C54.68,130.89,47,136.73,47,136.73A3.48,3.48,0,0,1,44.9,137.45Zm-9.83-22,10.47,13.63c3.08-2.35,8.44-6.46,14.68-11.25,4.24-3.26,0-9.35-.47-10-2.54-3.52-6.8-6.06-9.58-4.29Z" transform="translate(-13 -37.2)"/><path class="9354a5fc-dc9a-4323-a2e9-4b7248345b33" d="M48.14,131.8l17.92-14.18c9.24-6.27,24,12.4,14.24,19.94s-17.46,13.37-17.46,13.37Z" transform="translate(-13 -37.2)"/><path class="5051c92c-66c9-4814-821a-df3533b34181" d="M62.85,154.42a3.49,3.49,0,0,1-2.78-1.37l-14.7-19.13a3.5,3.5,0,0,1,.6-4.88L63.9,114.88l0.21-.15c6.6-4.48,14.69-.41,19.27,5.92,5.19,7.18,4.8,15.27-.94,19.68C72.62,147.87,65,153.71,65,153.71A3.48,3.48,0,0,1,62.85,154.42ZM53,132.4L63.49,146c3.08-2.35,8.44-6.46,14.68-11.25,4.24-3.26,0-9.35-.47-10-2.54-3.52-6.8-6.06-9.58-4.29Z" transform="translate(-13 -37.2)"/><path class="9354a5fc-dc9a-4323-a2e9-4b7248345b33" d="M66.09,148.77L84,134.59c9.24-6.27,24,12.4,14.24,19.94S80.79,167.9,80.79,167.9Z" transform="translate(-13 -37.2)"/><path class="5051c92c-66c9-4814-821a-df3533b34181" d="M80.79,171.4A3.49,3.49,0,0,1,78,170L63.32,150.9a3.5,3.5,0,0,1,.6-4.88l17.92-14.18L82,131.7c6.6-4.48,14.69-.41,19.27,5.92,5.19,7.18,4.8,15.27-.94,19.68-9.81,7.54-17.47,13.38-17.47,13.38A3.48,3.48,0,0,1,80.79,171.4Zm-9.83-22L81.44,163c3.08-2.35,8.44-6.46,14.68-11.25,4.24-3.26,0-9.35-.47-10-2.54-3.52-6.8-6.06-9.58-4.29Z" transform="translate(-13 -37.2)"/><path class="15dfdef8-f310-45bf-b1a5-ba41d02856fc" d="M155.86,108.55l-37-39.24,5.73-3.85s17.85,18.05,42.25,4.45l11.39,12.77Z" transform="translate(-13 -37.2)"/><path class="5051c92c-66c9-4814-821a-df3533b34181" d="M99.21,81.9a3.5,3.5,0,0,1-1.77-6.52l22-12.89a3.5,3.5,0,1,1,3.54,6L101,81.42A3.48,3.48,0,0,1,99.21,81.9Z" transform="translate(-13 -37.2)"/></svg>