<svg id="c4f81750-3e1e-4a4d-8a4b-a56c869325df" data-name="Layer 3" xmlns="http://www.w3.org/2000/svg" viewBox="0 0 174 156.86"><defs><style>.\35 5e5533a-2e28-4642-98ac-e175359d61a2{fill:#f58126;}.fcb6341e-d948-4094-a22c-54a052524b45{fill:#b03424;}.\34 4e61d73-7544-4a51-924f-94507c252599{fill:#f05b2b;}.c5b1a6ba-27db-4b8c-8e88-df6ea9a7afde{fill:#f9a364;}</style></defs><title>influencer</title><circle class="55e5533a-2e28-4642-98ac-e175359d61a2" cx="38.66" cy="40.9" r="28.09"/><path class="55e5533a-2e28-4642-98ac-e175359d61a2" d="M43.32,85.17L22.54,163.44s39.67,22,63.67-2L66.92,85.17" transform="translate(-15.46 -21.78)"/><path class="fcb6341e-d948-4094-a22c-54a052524b45" d="M44.83,35.79L74.65,81.84s-8.79,9.64-21.39,8.93S32.8,84.14,28,76.79s-5.23-21.45,3-32.24C35.3,37.77,44.83,35.79,44.83,35.79Z" transform="translate(-15.46 -21.78)"/><path class="fcb6341e-d948-4094-a22c-54a052524b45" d="M54.12,90.77L68,171.49s-19.09,5.28-45.42-8.05l20-75.37" transform="translate(-15.46 -21.78)"/><path class="fcb6341e-d948-4094-a22c-54a052524b45" d="M74.28,90.11a33.88,33.88,0,0,0,3-2.52l0.76-.73,0.11-.11,0.62-.64L79,85.93A34.08,34.08,0,0,0,44.41,30c-1.94.46-11.51,3.1-16.67,11A34.11,34.11,0,0,0,20,62.68a33.69,33.69,0,0,0,3.38,14.8c0.21,0.44.42,0.85,0.62,1.22A34.35,34.35,0,0,0,35.43,91.23l-20,75.19,4.09,2.27c0.73,0.41,18.19,10,37.74,10h0a54.07,54.07,0,0,0,10-.91c1-.18,1.7-0.35,2-0.42a43.15,43.15,0,0,0,21.05-11.64l2.41-2.41Zm-6.39,81.38s-0.57.15-1.62,0.34c-21.34,4.06-43.8-8.4-43.8-8.4l20-75.18A28.19,28.19,0,0,1,29.25,75.88c-0.17-.31-0.33-0.63-0.49-1A28.09,28.09,0,0,1,32.6,44.55c4.2-6.78,13.34-8.77,13.35-8.77A28.08,28.08,0,0,1,74.57,81.84h0s-0.22.25-.63,0.66l-0.11.1-0.6.57a28.22,28.22,0,0,1-3,2.43L70,85.8,69.67,86c-0.69.47-1.44,1-2.26,1.41l18.71,74A37.15,37.15,0,0,1,67.88,171.49Z" transform="translate(-15.46 -21.78)"/><path class="44e61d73-7544-4a51-924f-94507c252599" d="M126.41,80a34,34,0,0,1-16-4.23l-2.55-1.53,8.67-26.74a14.7,14.7,0,1,1,19.14.28l9,25.2-2.19,1.65A26.13,26.13,0,0,1,126.41,80h0Z" transform="translate(-15.46 -21.78)"/><path class="c5b1a6ba-27db-4b8c-8e88-df6ea9a7afde" d="M137.23,36.48a11,11,0,1,0-16.29,9.57l-8.6,26.51s14.84,8.91,27.86-.91l-9-25.37A11,11,0,0,0,137.23,36.48Z" transform="translate(-15.46 -21.78)"/><path class="44e61d73-7544-4a51-924f-94507c252599" d="M131.18,46.27A9.32,9.32,0,0,1,121,46.05l-5.61-3.54V33.83l2.06-5.48,4.34-2.83L134.41,45Z" transform="translate(-15.46 -21.78)"/><polygon class="44e61d73-7544-4a51-924f-94507c252599" points="109.42 25.8 115.18 54.98 107.19 55.66 95.66 51.55 105.42 21.98 109.42 25.8"/><path class="44e61d73-7544-4a51-924f-94507c252599" d="M134.51,47.43a13.7,13.7,0,1,0-16.79-.27l-8.64,26.63,1.87,1.12A32.81,32.81,0,0,0,126.39,79h0a25.14,25.14,0,0,0,15.47-5.17l1.61-1.21ZM112.35,72.56L121,46.05a11,11,0,1,1,10.23.22l9,25.37C127.2,81.46,112.35,72.56,112.35,72.56Z" transform="translate(-15.46 -21.78)"/><path class="44e61d73-7544-4a51-924f-94507c252599" d="M171.2,117.17a34,34,0,0,1-16-4.23l-2.55-1.53,8.67-26.74a14.7,14.7,0,1,1,19.14.28l9,25.2-2.19,1.65a26.13,26.13,0,0,1-16.07,5.37h0Z" transform="translate(-15.46 -21.78)"/><path class="c5b1a6ba-27db-4b8c-8e88-df6ea9a7afde" d="M182,73.66a11,11,0,1,0-16.29,9.57l-8.6,26.51s14.84,8.91,27.86-.91l-9-25.37A11,11,0,0,0,182,73.66Z" transform="translate(-15.46 -21.78)"/><path class="44e61d73-7544-4a51-924f-94507c252599" d="M176,83.45a9.32,9.32,0,0,1-10.23-.22l-5.61-3.54V71l2.06-5.48,4.34-2.83,12.67,19.5Z" transform="translate(-15.46 -21.78)"/><polygon class="44e61d73-7544-4a51-924f-94507c252599" points="154.2 62.97 159.97 92.15 151.98 92.84 140.45 88.73 150.21 59.16 154.2 62.97"/><path class="44e61d73-7544-4a51-924f-94507c252599" d="M179.29,84.61a13.7,13.7,0,1,0-16.79-.27L153.86,111l1.87,1.12a32.81,32.81,0,0,0,15.45,4.09h0A25.14,25.14,0,0,0,186.65,111l1.61-1.21Zm-22.15,25.13,8.6-26.51a11,11,0,1,1,10.23.22l9,25.37C172,118.64,157.14,109.73,157.14,109.73Z" transform="translate(-15.46 -21.78)"/><path class="44e61d73-7544-4a51-924f-94507c252599" d="M133.79,169.38a34,34,0,0,1-16-4.23l-2.55-1.53,8.67-26.74a14.7,14.7,0,1,1,19.14.28l9,25.2L149.86,164a26.13,26.13,0,0,1-16.07,5.37h0Z" transform="translate(-15.46 -21.78)"/><path class="c5b1a6ba-27db-4b8c-8e88-df6ea9a7afde" d="M144.61,125.86a11,11,0,1,0-16.29,9.57l-8.6,26.51s14.84,8.91,27.86-.91l-9-25.37A11,11,0,0,0,144.61,125.86Z" transform="translate(-15.46 -21.78)"/><path class="44e61d73-7544-4a51-924f-94507c252599" d="M138.57,135.65a9.32,9.32,0,0,1-10.23-.22l-5.61-3.54v-8.68l2.06-5.48,4.34-2.83,12.67,19.5Z" transform="translate(-15.46 -21.78)"/><polygon class="44e61d73-7544-4a51-924f-94507c252599" points="116.8 115.17 122.56 144.36 114.57 145.04 103.04 140.93 112.8 111.36 116.8 115.17"/><path class="44e61d73-7544-4a51-924f-94507c252599" d="M141.89,136.81a13.7,13.7,0,1,0-16.79-.27l-8.64,26.63,1.87,1.12a32.81,32.81,0,0,0,15.45,4.09h0a25.14,25.14,0,0,0,15.47-5.17l1.61-1.21Zm-22.15,25.13,8.6-26.51a11,11,0,1,1,10.23.22l9,25.37C134.58,170.84,119.74,161.94,119.74,161.94Z" transform="translate(-15.46 -21.78)"/></svg>