<svg id="b72c64ea-f123-4dca-ab36-a22984a6aa36" data-name="Layer 1" xmlns="http://www.w3.org/2000/svg" viewBox="0 0 173.84 174.71"><defs><style>.c326c9be-ca92-42ce-9795-9bd36225443a{fill:#ad1100;}.e7ecc9ae-3f69-4271-8694-861d65dff195{fill:#fd9344;}.e04d88e3-e4d2-4df4-9cb1-be75ee6a5858{fill:#fd340b;}.\34 9ef3299-23d1-46c0-b930-f43dd2c7b294{fill:none;stroke:#ad1100;stroke-miterlimit:10;stroke-width:6px;}.e4494fc2-133a-4f9c-b16f-cbab25532422{fill:#ff650a;}</style></defs><title>spotlight</title><path class="c326c9be-ca92-42ce-9795-9bd36225443a" d="M46.54,82.47a11.86,11.86,0,0,1-7.07-2.23C39.33,80.13,39.19,80,39,79.9a6,6,0,0,1-.52-0.47A11.48,11.48,0,0,1,37,77.73L17.21,55.61a6,6,0,0,1-.82-1.17c-2.81-5.25-2.43-11.58,1-17.36C21.45,30.36,28.65,26,35.76,26a17.16,17.16,0,0,1,8.45,2.2L66.63,41.41a6,6,0,0,1,.69.47L67.47,42C74.61,47.21,74,59.37,66,70.27c-5.51,7.52-13,12.19-19.44,12.19h0Z" transform="translate(-14.53 -17.75)"/><path class="e7ecc9ae-3f69-4271-8694-861d65dff195" d="M63.94,46.83c-0.12-.09-0.25-0.15-0.37-0.22l0,0L41.28,33.46c-10.86-6.06-24.86,8.32-19.6,18.16L41.7,74a5.38,5.38,0,0,0,1,1.13l0.07,0.08h0c0.08,0.07.15,0.14,0.23,0.21,4.23,3.1,12.35-.78,18.12-8.67S68.17,49.93,63.94,46.83Z" transform="translate(-14.53 -17.75)"/><path class="e04d88e3-e4d2-4df4-9cb1-be75ee6a5858" d="M42.78,75.18L21.68,51.59c-5.26-9.84,8.74-24.21,19.6-18.16L63.58,46.55Z" transform="translate(-14.53 -17.75)"/><ellipse class="e7ecc9ae-3f69-4271-8694-861d65dff195" cx="53.47" cy="61.09" rx="17.7" ry="9.5" transform="translate(-41.93 50.39) rotate(-53.79)"/><path class="c326c9be-ca92-42ce-9795-9bd36225443a" d="M66.3,43.62l-0.19-.13a4.08,4.08,0,0,0-.51-0.36L43.22,30A15.18,15.18,0,0,0,35.74,28c-6.42,0-12.94,4-16.62,10.1-3.1,5.17-3.46,10.78-1,15.39a4,4,0,0,0,.55.78L38.54,76.47A9.33,9.33,0,0,0,39.9,78a4,4,0,0,0,.41.37l0.33,0.27a9.87,9.87,0,0,0,5.88,1.84h0c5.86,0,12.69-4.36,17.83-11.37a31,31,0,0,0,5.88-13.55C71,50.26,69.58,46,66.3,43.62ZM61.13,66.73C55.35,74.62,47.24,78.5,43,75.4c-0.08-.06-0.15-0.14-0.23-0.21h0l-0.07-.08a5.39,5.39,0,0,1-1-1.13l-20-22.38c-5.26-9.84,8.74-24.21,19.6-18.16L63.58,46.58l0,0c0.12,0.08.25,0.14,0.37,0.22C68.16,49.93,66.9,58.84,61.13,66.73Z" transform="translate(-14.53 -17.75)"/><path class="c326c9be-ca92-42ce-9795-9bd36225443a" d="M25.14,36.86l15.34,14s-8.17,12-4.94,17.65c2.91,5.15-16.25-16.63-16.25-16.63v-9Z" transform="translate(-14.53 -17.75)"/><line class="49ef3299-23d1-46c0-b930-f43dd2c7b294" x1="6.01" y1="3" x2="35.47" y2="3"/><line class="49ef3299-23d1-46c0-b930-f43dd2c7b294" x1="21.01" y1="3" x2="21.01" y2="11.27"/><polygon class="e7ecc9ae-3f69-4271-8694-861d65dff195" points="50.09 54.93 64.51 157.67 170.19 151.02 50.09 54.93"/><ellipse class="e4494fc2-133a-4f9c-b16f-cbab25532422" cx="119.17" cy="157.29" rx="54.67" ry="17.42"/></svg>