<svg id="79b53f29-c571-4b32-b7f0-4909ca038a4d" data-name="830e9472-2610-41c3-81ac-038b3afc92dc" xmlns="http://www.w3.org/2000/svg" viewBox="0 0 360.01 338.36"><defs><style>.\30 7770f45-1fc4-4d30-b891-fb0c69edd077{fill:#fff;}</style></defs><title>snapchat_white</title><path class="07770f45-1fc4-4d30-b891-fb0c69edd077" d="M183.48,7.46c13.56,0,60.26,3.64,82.27,53,7.24,16.24,5.39,45.68,3.9,69.32-0.24,3.75-.47,7.38-0.65,10.86l-0.08,1.49,1,1.11c0.4,0.45,4.17,4.38,12.54,4.71h0.28c5.54-.21,11.78-1.93,18.56-5.1a9,9,0,0,1,3.7-.67,12.5,12.5,0,0,1,4.71.89l0.21,0.09c3.55,1.24,6.06,3.59,6.11,5.72,0,1.21-.88,5.53-13.48,10.5-1.23.49-2.85,1-4.73,1.59-8.19,2.61-20.58,6.53-24.74,16.35-2.35,5.54-1.71,12.07,1.91,19.4,1.49,3.47,24.88,56.17,77.53,64.85a2.42,2.42,0,0,1-.22.84c-0.89,2.1-6.57,9.36-41.86,14.81-5.52.85-6.88,7-8.45,14.24-0.56,2.57-1.14,5.17-1.93,7.86-0.24.81-.28,0.86-1.16,0.86h-0.41a39.07,39.07,0,0,1-6.7-.86,103.31,103.31,0,0,0-20.62-2.18,91.9,91.9,0,0,0-15,1.26c-10.8,1.8-19.58,8-28.89,14.58-12.49,8.83-25.4,18-45.1,18-0.86,0-1.7,0-2.54-.07H179.2c-0.48,0-1,.06-1.47.06-19.7,0-32.61-9.13-45.1-18-9.3-6.58-18.09-12.79-28.89-14.59a91.91,91.91,0,0,0-15-1.26,101.65,101.65,0,0,0-20.62,2.31,41.85,41.85,0,0,1-6.7,1c-1.28,0-1.3-.07-1.57-1-0.79-2.69-1.37-5.36-1.93-7.93-1.57-7.2-2.93-13.42-8.45-14.27-35.29-5.45-41-12.72-41.86-14.82a2.44,2.44,0,0,1-.21-0.86c52.65-8.67,76-61.37,77.52-64.85,3.62-7.34,4.26-13.86,1.91-19.4-4.16-9.82-16.55-13.75-24.74-16.35-1.88-.59-3.5-1.11-4.73-1.59-10.64-4.2-13.91-8.44-13.42-11,0.56-3,5.69-6,10.16-6a6.09,6.09,0,0,1,2.54.47c7.27,3.4,13.91,5.13,19.72,5.13,9.15,0,13.23-4.26,13.66-4.74l1-1.11,0-1.48c-0.19-3.47-.41-7.1-0.65-10.85-1.49-23.65-3.34-53.06,3.9-69.31,21.92-49.16,68.4-53,82.12-53l6.3-.06h0.81m0-7.46h-0.89l-6.23.06c-14.85,0-65.18,4.14-88.93,57.37-8,17.91-6.07,48.33-4.54,72.77,0.18,2.88.37,5.87,0.54,8.77a14.35,14.35,0,0,1-7,1.53c-4.71,0-10.28-1.49-16.56-4.43a13.36,13.36,0,0,0-5.71-1.17c-7.34,0-16.13,4.83-17.5,12-1,5.19,1.33,12.75,18,19.34,1.5,0.59,3.31,1.17,5.22,1.77,6.89,2.19,17.3,5.49,20.13,12.15,1.46,3.45.88,7.89-1.73,13.19l-0.17.36c-0.92,2.13-23,52.37-71.88,60.42A7.47,7.47,0,0,0,0,261.95a10,10,0,0,0,.8,3.35c3.68,8.59,19.2,14.88,47.37,19.25,0.94,1.28,1.92,5.78,2.52,8.52s1.2,5.5,2.06,8.44,3.06,6.36,8.73,6.36a45.4,45.4,0,0,0,8.13-1.14,95.06,95.06,0,0,1,19.19-2.17,84.5,84.5,0,0,1,13.76,1.16c9.1,1.52,16.83,7,25.79,13.31,12.82,9.07,27.34,19.33,49.42,19.33,0.61,0,1.22,0,1.82-.06s1.65,0.06,2.64.06c22.08,0,36.6-10.27,49.41-19.33,9-6.34,16.7-11.8,25.8-13.31a84.34,84.34,0,0,1,13.75-1.16,95.66,95.66,0,0,1,19.19,2,45,45,0,0,0,8.13,1h0.41a8.11,8.11,0,0,0,8.32-6.24c0.85-2.88,1.46-5.6,2.06-8.36s1.57-7.22,2.51-8.49c28.21-4.38,43.7-10.66,47.36-19.21a9.93,9.93,0,0,0,.81-3.37,7.46,7.46,0,0,0-6.24-7.78c-49-8.07-71-58.29-71.88-60.42,0-.12-0.11-0.24-0.17-0.36-2.61-5.3-3.19-9.73-1.73-13.18,2.82-6.66,13.23-10,20.12-12.14,1.93-.61,3.74-1.19,5.23-1.78,12.2-4.82,18.32-10.74,18.19-17.59-0.11-5.38-4.3-10.18-11-12.56h0a20,20,0,0,0-7.5-1.4,16.6,16.6,0,0,0-6.89,1.4c-5.8,2.72-11,4.2-15.52,4.4a13.77,13.77,0,0,1-6-1.5c0.14-2.48.3-5,.47-7.7l0.06-1c1.54-24.46,3.46-54.91-4.53-72.83C248.84,4.19,198.4,0,183.5,0h0Z" transform="translate(0.01 0)"/></svg>