<svg id="830e9472-2610-41c3-81ac-038b3afc92dc" data-name="Layer 1" xmlns="http://www.w3.org/2000/svg" viewBox="0 0 360 338.36"><defs><style>.\32 f4fc0ff-3149-456d-85d4-fe2d9b6eb6f4{fill:none;}.\38 c76ca6d-9218-4b7b-b2d3-bbdc072c51a3{fill:#080607;}</style></defs><title>snapchat</title><path class="2f4fc0ff-3149-456d-85d4-fe2d9b6eb6f4" d="M218.23,381.45c-0.91,0-1.8,0-2.69-.07h0c-0.57,0-1.16.07-1.76,0.07-20.89,0-34.29-9.48-47.25-18.64-9-6.32-17.4-12.29-27.35-14a88.3,88.3,0,0,0-14.36-1.21,98.21,98.21,0,0,0-19.9,2.25A43.55,43.55,0,0,1,97.49,351c-2,0-4.2-.44-5.15-3.68-0.83-2.81-1.42-5.54-2-8.17-1.48-6.78-2.53-11-5.37-11.39-33.12-5.12-42.61-12.09-44.72-17a6.38,6.38,0,0,1-.51-2.12,3.73,3.73,0,0,1,3.12-3.89c50.92-8.39,73.75-60.43,74.7-62.64l0.08-.18c3.12-6.32,3.73-11.8,1.82-16.29C116,217.32,104.57,213.7,97,211.31c-1.85-.58-3.6-1.14-5-1.68-15.05-6-16.31-12.06-15.72-15.17,1-5.3,8.1-9,13.83-9a9.69,9.69,0,0,1,4.12.82c6.77,3.17,12.88,4.78,18.14,4.78,7.28,0,10.45-3.06,10.84-3.46-0.18-3.45-.41-7-0.65-10.76-1.52-24.07-3.4-54,4.22-71.06,22.83-51.18,71.23-55.16,85.53-55.16l6.27-.06h0.85c14.33,0,62.84,4,85.68,55.19,7.62,17.08,5.73,47,4.21,71.08l-0.06,1c-0.21,3.35-.41,6.61-0.58,9.72,0.36,0.37,3.29,3.18,9.88,3.44h0c5-.19,10.77-1.79,17.1-4.75a12.9,12.9,0,0,1,5.31-1,16.23,16.23,0,0,1,6.11,1.17l0.11,0c5.11,1.81,8.46,5.4,8.54,9.14,0.07,3.53-2.63,8.83-15.84,14-1.37.54-3.12,1.09-5,1.68-7.55,2.4-18.95,6-22.44,14.25-1.91,4.49-1.3,10,1.82,16.29,0,0.06.06,0.12,0.08,0.18,0.95,2.21,23.76,54.24,74.7,62.63a3.74,3.74,0,0,1,3.12,3.89,6.26,6.26,0,0,1-.52,2.13c-2.1,4.91-11.57,11.88-44.71,17-2.71.42-3.76,3.94-5.37,11.34-0.59,2.69-1.18,5.34-2,8.12a4.43,4.43,0,0,1-4.74,3.54h-0.41a41.48,41.48,0,0,1-7.42-.94,98.92,98.92,0,0,0-19.9-2.11,88.4,88.4,0,0,0-14.37,1.21c-9.94,1.66-18.38,7.62-27.32,13.93C252.52,372,239.12,381.45,218.23,381.45Z" transform="translate(-36 -46.82)"/><path class="8c76ca6d-9218-4b7b-b2d3-bbdc072c51a3" d="M219.48,54.28c13.56,0,60.26,3.64,82.27,53,7.24,16.24,5.39,45.68,3.9,69.32-0.24,3.75-.47,7.38-0.65,10.86l-0.08,1.49,1,1.11c0.4,0.45,4.17,4.38,12.54,4.71h0.28c5.54-.21,11.78-1.93,18.56-5.1A9,9,0,0,1,341,189a12.5,12.5,0,0,1,4.71.89l0.21,0.09c3.55,1.24,6.06,3.59,6.11,5.72,0,1.21-.88,5.53-13.48,10.5-1.23.49-2.85,1-4.73,1.59-8.19,2.61-20.58,6.53-24.74,16.35-2.35,5.54-1.71,12.07,1.91,19.4,1.49,3.47,24.88,56.17,77.53,64.85a2.42,2.42,0,0,1-.22.84c-0.89,2.1-6.57,9.36-41.86,14.81-5.52.85-6.88,7-8.45,14.24-0.56,2.57-1.14,5.17-1.93,7.86-0.24.81-.28,0.86-1.16,0.86h-0.41a39.07,39.07,0,0,1-6.7-.86,103.31,103.31,0,0,0-20.62-2.18,91.9,91.9,0,0,0-15,1.26c-10.8,1.8-19.58,8-28.89,14.58-12.49,8.83-25.4,18-45.1,18-0.86,0-1.7,0-2.54-.07h-0.22l-0.22,0c-0.48,0-1,.06-1.47.06-19.7,0-32.61-9.13-45.1-18-9.3-6.58-18.09-12.79-28.89-14.59a91.91,91.91,0,0,0-15-1.26,101.65,101.65,0,0,0-20.62,2.31,41.85,41.85,0,0,1-6.7,1c-1.28,0-1.3-.07-1.57-1-0.79-2.69-1.37-5.36-1.93-7.93-1.57-7.2-2.93-13.42-8.45-14.27-35.29-5.45-41-12.72-41.86-14.82a2.44,2.44,0,0,1-.21-0.86c52.65-8.67,76-61.37,77.52-64.85,3.62-7.34,4.26-13.86,1.91-19.4-4.16-9.82-16.55-13.75-24.74-16.35-1.88-.59-3.5-1.11-4.73-1.59-10.64-4.2-13.91-8.44-13.42-11,0.56-3,5.69-6,10.16-6a6.09,6.09,0,0,1,2.54.47c7.27,3.4,13.91,5.13,19.72,5.13,9.15,0,13.23-4.26,13.66-4.74l1-1.11L127,187.45c-0.19-3.47-.41-7.1-0.65-10.85-1.49-23.65-3.34-53.06,3.9-69.31,21.92-49.16,68.4-52.95,82.12-52.95l6.3-.06h0.81m0-7.46h-0.89l-6.23.06c-14.85,0-65.18,4.14-88.93,57.37-8,17.91-6.07,48.33-4.54,72.77,0.18,2.88.37,5.87,0.54,8.77a14.35,14.35,0,0,1-7,1.53c-4.71,0-10.28-1.49-16.56-4.43a13.36,13.36,0,0,0-5.71-1.17c-7.34,0-16.13,4.83-17.5,12-1,5.19,1.33,12.75,18,19.34,1.5,0.59,3.31,1.17,5.22,1.77,6.89,2.19,17.3,5.49,20.13,12.15,1.46,3.45.88,7.89-1.73,13.19-0.06.12-.11,0.24-0.17,0.36-0.92,2.13-23,52.37-71.88,60.42A7.47,7.47,0,0,0,36,308.77a10,10,0,0,0,.8,3.35C40.48,320.71,56,327,84.17,331.37c0.94,1.28,1.92,5.78,2.52,8.52s1.2,5.5,2.06,8.44,3.06,6.36,8.73,6.36a45.4,45.4,0,0,0,8.13-1.14,95.06,95.06,0,0,1,19.19-2.17,84.5,84.5,0,0,1,13.76,1.16c9.1,1.52,16.83,7,25.79,13.31,12.82,9.07,27.34,19.33,49.42,19.33,0.61,0,1.22,0,1.82-.06s1.65,0.06,2.64.06c22.08,0,36.6-10.27,49.41-19.33,9-6.34,16.7-11.8,25.8-13.31a84.34,84.34,0,0,1,13.75-1.16,95.66,95.66,0,0,1,19.19,2,45.05,45.05,0,0,0,8.13,1h0.41a8.11,8.11,0,0,0,8.32-6.24c0.85-2.88,1.46-5.6,2.06-8.36s1.57-7.22,2.51-8.49c28.21-4.38,43.7-10.66,47.36-19.21a9.93,9.93,0,0,0,.81-3.37,7.46,7.46,0,0,0-6.24-7.78c-48.95-8.07-71-58.29-71.88-60.42-0.05-.12-0.11-0.24-0.17-0.36-2.61-5.3-3.19-9.73-1.73-13.18,2.82-6.66,13.23-10,20.12-12.14,1.93-.61,3.74-1.19,5.23-1.78,12.2-4.82,18.32-10.74,18.19-17.59-0.11-5.38-4.3-10.18-11-12.56h0A20,20,0,0,0,341,181.5a16.6,16.6,0,0,0-6.89,1.4c-5.8,2.72-11,4.2-15.52,4.4a13.77,13.77,0,0,1-6-1.5c0.14-2.48.3-5,.47-7.7l0.06-1c1.54-24.46,3.46-54.91-4.53-72.83-23.75-53.26-74.19-57.4-89.09-57.4h0Z" transform="translate(-36 -46.82)"/></svg>