<svg id="69bdb1c6-2f98-411e-97a1-092233ee2f54" data-name="a657ee2e-143d-4f54-b6c6-65b678d39440" xmlns="http://www.w3.org/2000/svg" viewBox="0 0 176 124"><defs><style>.\31 de993f6-4682-4218-af26-5697ee42ad95{fill:#fff;}</style></defs><title>youtube_white</title><path class="1de993f6-4682-4218-af26-5697ee42ad95" d="M172.32,19.36A22.11,22.11,0,0,0,156.76,3.7C143,0,88,0,88,0S33,0,19.24,3.7A22.11,22.11,0,0,0,3.68,19.36C0,33.18,0,62,0,62s0,28.82,3.68,42.64A22.11,22.11,0,0,0,19.24,120.3C33,124,88,124,88,124s55,0,68.76-3.7a22.11,22.11,0,0,0,15.56-15.66C176,90.82,176,62,176,62S176,33.18,172.32,19.36ZM70,88.17V35.83L116,62Z"/></svg>